<svg xmlns="http://www.w3.org/2000/svg" width="20" height="20" viewBox="0 0 20 20" fill="#ffffff">
    <path d="M17.4995 10.0003C17.4995 10.1661 17.4337 10.3251 17.3165 10.4423C17.1992 10.5595 17.0403 10.6253 16.8745 10.6253H4.63311L9.1917 15.1832C9.24977 15.2412 9.29583 15.3102 9.32726 15.386C9.35869 15.4619 9.37486 15.5432 9.37486 15.6253C9.37486 15.7075 9.35869 15.7888 9.32726 15.8647C9.29583 15.9405 9.24977 16.0095 9.1917 16.0675C9.13363 16.1256 9.0647 16.1717 8.98882 16.2031C8.91295 16.2345 8.83164 16.2507 8.74951 16.2507C8.66739 16.2507 8.58607 16.2345 8.5102 16.2031C8.43433 16.1717 8.3654 16.1256 8.30733 16.0675L2.68233 10.4425C2.62422 10.3845 2.57812 10.3156 2.54667 10.2397C2.51521 10.1638 2.49902 10.0825 2.49902 10.0003C2.49902 9.91821 2.51521 9.83688 2.54667 9.76101C2.57812 9.68514 2.62422 9.61621 2.68233 9.55816L8.30733 3.93316C8.4246 3.81588 8.58366 3.75 8.74951 3.75C8.91537 3.75 9.07443 3.81588 9.1917 3.93316C9.30898 4.05044 9.37486 4.2095 9.37486 4.37535C9.37486 4.5412 9.30898 4.70026 9.1917 4.81753L4.63311 9.37535H16.8745C17.0403 9.37535 17.1992 9.4412 17.3165 9.55841C17.4337 9.67562 17.4995 9.83459 17.4995 10.0003Z"/>
</svg>