<svg width="20" height="20" viewBox="0 0 20 20" fill="none" xmlns="http://www.w3.org/2000/svg">
<path d="M18.7414 17.2268L17.6274 6.18516C17.5912 5.8797 17.4437 5.59829 17.2131 5.39477C16.9825 5.19125 16.6849 5.0799 16.3774 5.08203H13.75C13.75 4.08747 13.3549 3.13364 12.6517 2.43038C11.9484 1.72712 10.9946 1.33203 10 1.33203C9.00546 1.33203 8.05163 1.72712 7.34837 2.43038C6.64511 3.13364 6.25002 4.08747 6.25002 5.08203H3.61956C3.31198 5.0799 3.01442 5.19125 2.7838 5.39477C2.55317 5.59829 2.40569 5.8797 2.36956 6.18516L1.25549 17.2268C1.23508 17.4018 1.25188 17.5791 1.30479 17.7471C1.3577 17.9152 1.44553 18.0701 1.56252 18.2018C1.68036 18.3341 1.82476 18.44 1.9863 18.5127C2.14784 18.5854 2.32288 18.6232 2.50002 18.6237H17.4938C17.672 18.6241 17.8482 18.5867 18.0109 18.514C18.1736 18.4413 18.319 18.3349 18.4375 18.2018C18.554 18.0699 18.6412 17.9148 18.6936 17.7468C18.746 17.5788 18.7623 17.4016 18.7414 17.2268ZM10 2.58203C10.6631 2.58203 11.2989 2.84542 11.7678 3.31426C12.2366 3.7831 12.5 4.41899 12.5 5.08203H7.50002C7.50002 4.41899 7.76341 3.7831 8.23226 3.31426C8.7011 2.84542 9.33698 2.58203 10 2.58203ZM2.50002 17.3737L3.61956 6.33203H6.25002V8.20703C6.25002 8.37279 6.31587 8.53176 6.43308 8.64897C6.55029 8.76618 6.70926 8.83203 6.87502 8.83203C7.04078 8.83203 7.19975 8.76618 7.31696 8.64897C7.43418 8.53176 7.50002 8.37279 7.50002 8.20703V6.33203H12.5V8.20703C12.5 8.37279 12.5659 8.53176 12.6831 8.64897C12.8003 8.76618 12.9593 8.83203 13.125 8.83203C13.2908 8.83203 13.4498 8.76618 13.567 8.64897C13.6842 8.53176 13.75 8.37279 13.75 8.20703V6.33203H16.3867L17.4938 17.3737H2.50002Z" fill="white"/>
</svg>
